<?xml version="1.0" encoding="UTF-8" standalone="no"?>
<!DOCTYPE svg PUBLIC "-//W3C//DTD SVG 1.1//EN" "http://www.w3.org/Graphics/SVG/1.1/DTD/svg11.dtd">
<svg width="100%" height="100%" viewBox="0 0 683 565" version="1.1" xmlns="http://www.w3.org/2000/svg" xmlns:xlink="http://www.w3.org/1999/xlink" xml:space="preserve" xmlns:serif="http://www.serif.com/" style="fill-rule:evenodd;clip-rule:evenodd;stroke-linejoin:round;stroke-miterlimit:10;">
    <rect id="Geometric-Operations-2" serif:id="Geometric Operations 2" x="-1413" y="-114" width="4299" height="2861" style="fill:none;"/>
    <g id="Geometric-Operations-21" serif:id="Geometric Operations 2">
        <path d="M109.226,390.677L109.226,499.7" style="fill:none;stroke:rgb(247,0,255);stroke-width:3px;stroke-dasharray:9,6,0,0;"/>
        <path d="M285.494,138.506L285.494,499.7" style="fill:none;stroke:rgb(247,0,255);stroke-width:3px;stroke-dasharray:9,6,0,0;"/>
        <path d="M212,162.103L212,499.7" style="fill:none;stroke:rgb(21,183,183);stroke-width:3px;stroke-dasharray:9,6,0,0;"/>
        <path d="M319.792,345.2L319.792,499.7" style="fill:none;stroke:rgb(21,183,183);stroke-width:3px;stroke-dasharray:9,6,0,0;"/>
        <path d="M356,162.103L356,499.7" style="fill:none;stroke:black;stroke-opacity:0.5;stroke-width:2px;stroke-dasharray:6,4,0,0;"/>
        <path d="M411,339.2L411,499.7" style="fill:none;stroke:black;stroke-opacity:0.5;stroke-width:2px;stroke-dasharray:6,4,0,0;"/>
        <path d="M433,162.103L433,499.7" style="fill:none;stroke:black;stroke-opacity:0.5;stroke-width:2px;stroke-dasharray:6,4,0,0;"/>
        <path d="M602,116.006L602,499.7" style="fill:none;stroke:rgb(255,0,0);stroke-width:3px;stroke-dasharray:9,6,0,0;"/>
        <path d="M464,213.428L464,499.7" style="fill:none;stroke:rgb(255,0,0);stroke-width:3px;stroke-dasharray:9,6,0,0;"/>
        <path d="M561,167.217L561,499.7" style="fill:none;stroke:black;stroke-opacity:0.5;stroke-width:2px;stroke-dasharray:6,4,0,0;"/>
        <path d="M489,375L489,499.7" style="fill:none;stroke:black;stroke-opacity:0.5;stroke-width:2px;stroke-dasharray:6,4,0,0;"/>
        <path d="M584,264.753L584,499.7" style="fill:none;stroke:black;stroke-opacity:0.5;stroke-width:2px;stroke-dasharray:6,4,0,0;"/>
        <path d="M661.341,490.7L679.341,499.7L661.341,508.7L661.341,490.7Z"/>
        <path d="M41.341,499.7L664.941,499.7" style="fill:none;stroke:black;stroke-width:2px;stroke-linecap:square;"/>
        <path d="M32.341,41.7L41.341,23.7L50.341,41.7L32.341,41.7Z"/>
        <path d="M41.341,499.7L41.341,38.1" style="fill:none;stroke:black;stroke-width:2px;stroke-linecap:square;"/>
        <path d="M12.507,42.856L1.419,22.6L6.075,22.6L13.947,37.288L14.763,40.216L14.811,40.216L15.675,37.192L23.211,22.6L27.483,22.6L16.491,42.808L16.491,56.2L12.507,56.2L12.507,42.856Z" style="fill-rule:nonzero;"/>
        <path d="M665.262,537.042L655.038,520.53L659.838,520.53L666.654,531.906L667.854,534.642L669.006,531.906L676.206,520.53L680.622,520.53L670.062,536.706L681.102,554.13L676.446,554.13L668.862,542.082L667.566,539.202L666.318,542.082L658.542,554.13L654.078,554.13L665.262,537.042Z" style="fill-rule:nonzero;"/>
        <path d="M99.779,384.555C96.222,389.644 97.466,396.663 102.555,400.221C107.644,403.778 114.663,402.534 118.221,397.445C121.778,392.356 120.534,385.337 115.445,381.779C110.356,378.222 103.337,379.466 99.779,384.555Z" style="fill:rgb(247,0,255);"/>
        <path d="M276.274,132.06C279.831,126.971 286.851,125.728 291.94,129.285C297.029,132.842 298.272,139.862 294.715,144.951C291.158,150.04 284.138,151.284 279.049,147.726C273.96,144.169 272.716,137.149 276.274,132.06Z" style="fill:rgb(247,0,255);"/>
        <path d="M109,391L285.494,138.506" style="fill:none;stroke:rgb(247,0,255);stroke-width:5px;"/>
        <path d="M221.695,156.395C218.545,151.045 211.643,149.258 206.293,152.408C200.942,155.558 199.155,162.459 202.305,167.81C205.455,173.161 212.357,174.947 217.707,171.797C223.058,168.647 224.845,161.746 221.695,156.395Z" style="fill:rgb(21,183,183);"/>
        <path d="M329.487,339.493C332.637,344.844 330.85,351.745 325.499,354.895C320.149,358.045 313.247,356.259 310.097,350.908C306.947,345.557 308.734,338.656 314.085,335.506C319.435,332.356 326.337,334.142 329.487,339.493Z" style="fill:rgb(21,183,183);"/>
        <path d="M212,162.103L319.792,345.2" style="fill:none;stroke:rgb(21,183,183);stroke-width:5px;"/>
        <path d="M366.744,158.766C364.902,152.836 358.593,149.517 352.663,151.359C346.734,153.2 343.415,159.51 345.256,165.439C347.098,171.369 353.407,174.688 359.337,172.846C365.266,171.005 368.585,164.696 366.744,158.766Z"/>
        <path d="M421.744,335.864C423.585,341.794 420.266,348.103 414.337,349.944C408.407,351.786 402.098,348.467 400.256,342.537C398.415,336.607 401.734,330.298 407.663,328.457C413.593,326.615 419.902,329.934 421.744,335.864Z"/>
        <path d="M356,162.103L411,339.2" style="fill:none;stroke:black;stroke-width:5px;"/>
        <path d="M571.63,170.9C573.663,165.033 570.55,158.62 564.683,156.587C558.817,154.554 552.403,157.666 550.37,163.533C548.337,169.4 551.45,175.814 557.317,177.847C563.183,179.879 569.597,176.767 571.63,170.9Z"/>
        <path d="M499.63,378.683C497.597,384.55 491.183,387.663 485.317,385.63C479.45,383.597 476.337,377.183 478.37,371.317C480.403,365.45 486.817,362.337 492.683,364.37C498.55,366.403 501.663,372.817 499.63,378.683Z"/>
        <path d="M561,167.217L489,375" style="fill:none;stroke:black;stroke-width:5px;"/>
        <path d="M439.325,152.799C434.19,149.308 427.187,150.643 423.696,155.778C420.206,160.913 421.54,167.916 426.675,171.406C431.81,174.897 438.813,173.562 442.304,168.427C445.794,163.292 444.46,156.29 439.325,152.799Z"/>
        <path d="M590.325,255.449C595.46,258.94 596.794,265.943 593.304,271.078C589.813,276.212 582.81,277.547 577.675,274.057C572.54,270.566 571.206,263.563 574.696,258.428C578.187,253.293 585.19,251.958 590.325,255.449Z"/>
        <path d="M433,162.103L584,264.753" style="fill:none;stroke:black;stroke-width:5px;"/>
        <path d="M457.512,204.237C452.439,207.818 451.229,214.843 454.809,219.916C458.39,224.988 465.416,226.199 470.488,222.618C475.561,219.037 476.771,212.012 473.191,206.94C469.61,201.867 462.584,200.656 457.512,204.237Z" style="fill:rgb(255,0,0);"/>
        <path d="M595.512,106.815C600.584,103.234 607.61,104.445 611.191,109.517C614.771,114.59 613.561,121.615 608.488,125.196C603.416,128.777 596.39,127.566 592.809,122.494C589.229,117.421 590.439,110.396 595.512,106.815Z" style="fill:rgb(255,0,0);"/>
        <path d="M464,213.428L602,116.006" style="fill:none;stroke:rgb(255,0,0);stroke-width:5px;"/>
        <path d="M109.226,501.7L285.494,501.7" style="fill:none;stroke:rgb(247,0,255);stroke-width:6px;"/>
        <path d="M461.737,500.7L602,500.7" style="fill:none;stroke:rgb(255,0,0);stroke-width:6px;"/>
        <path d="M212,497.7L319.792,497.7" style="fill:none;stroke:rgb(21,183,183);stroke-width:6px;"/>
    </g>
</svg>
