<?xml version="1.0" encoding="UTF-8" standalone="no"?>
<!DOCTYPE svg PUBLIC "-//W3C//DTD SVG 1.1//EN" "http://www.w3.org/Graphics/SVG/1.1/DTD/svg11.dtd">
<svg width="100%" height="100%" viewBox="0 0 686 565" version="1.1" xmlns="http://www.w3.org/2000/svg" xmlns:xlink="http://www.w3.org/1999/xlink" xml:space="preserve" xmlns:serif="http://www.serif.com/" style="fill-rule:evenodd;clip-rule:evenodd;stroke-linejoin:round;stroke-miterlimit:10;">
    <rect id="Geometric-Operations-2" serif:id="Geometric Operations 2" x="-2191" y="-114" width="4299" height="2861" style="fill:none;"/>
    <g id="Geometric-Operations-21" serif:id="Geometric Operations 2">
        <path d="M515.108,37.753L515.108,499.7" style="fill:none;stroke:black;stroke-opacity:0.28;stroke-width:4px;"/>
        <path d="M660.449,490.7L678.449,499.7L660.449,508.7L660.449,490.7Z"/>
        <path d="M40.449,499.7L664.049,499.7" style="fill:none;stroke:black;stroke-width:2px;stroke-linecap:square;"/>
        <path d="M31.449,41.7L40.449,23.7L49.449,41.7L31.449,41.7Z"/>
        <path d="M40.449,499.7L40.449,38.1" style="fill:none;stroke:black;stroke-width:2px;stroke-linecap:square;"/>
        <path d="M13.819,42.856L2.731,22.6L7.387,22.6L15.259,37.288L16.075,40.216L16.123,40.216L16.987,37.192L24.523,22.6L28.795,22.6L17.803,42.808L17.803,56.2L13.819,56.2L13.819,42.856Z" style="fill-rule:nonzero;"/>
        <path d="M666.574,537.042L656.35,520.53L661.15,520.53L667.966,531.906L669.166,534.642L670.318,531.906L677.518,520.53L681.934,520.53L671.374,536.706L682.414,554.13L677.758,554.13L670.174,542.082L668.878,539.202L667.63,542.082L659.854,554.13L655.39,554.13L666.574,537.042Z" style="fill-rule:nonzero;"/>
        <path d="M98.887,384.555C95.33,389.644 96.573,396.663 101.662,400.221C106.751,403.778 113.771,402.534 117.328,397.445C120.886,392.356 119.642,385.337 114.553,381.779C109.464,378.222 102.444,379.466 98.887,384.555Z"/>
        <path d="M275.381,132.06C278.939,126.971 285.958,125.728 291.047,129.285C296.136,132.842 297.38,139.862 293.823,144.951C290.265,150.04 283.246,151.284 278.157,147.726C273.068,144.169 271.824,137.149 275.381,132.06Z"/>
        <path d="M108.108,391L284.602,138.506" style="fill:none;stroke:black;stroke-width:5px;"/>
        <path d="M220.802,156.395C217.652,151.045 210.751,149.258 205.4,152.408C200.05,155.558 198.263,162.459 201.413,167.81C204.563,173.161 211.464,174.947 216.815,171.797C222.166,168.647 223.952,161.746 220.802,156.395Z"/>
        <path d="M328.594,339.493C331.744,344.844 329.958,351.745 324.607,354.895C319.256,358.045 312.355,356.259 309.205,350.908C306.055,345.557 307.842,338.656 313.192,335.506C318.543,332.356 325.444,334.142 328.594,339.493Z"/>
        <path d="M211.108,162.103L318.9,345.2" style="fill:none;stroke:black;stroke-width:5px;"/>
        <path d="M365.851,158.766C364.01,152.836 357.701,149.517 351.771,151.359C345.841,153.2 342.522,159.51 344.364,165.439C346.205,171.369 352.515,174.688 358.444,172.846C364.374,171.005 367.693,164.696 365.851,158.766Z"/>
        <path d="M420.851,335.864C422.693,341.794 419.374,348.103 413.444,349.944C407.515,351.786 401.205,348.467 399.364,342.537C397.522,336.607 400.841,330.298 406.771,328.457C412.701,326.615 419.01,329.934 420.851,335.864Z"/>
        <path d="M355.108,162.103L410.108,339.2" style="fill:none;stroke:black;stroke-width:5px;"/>
        <path d="M570.738,170.9C572.77,165.033 569.658,158.62 563.791,156.587C557.924,154.554 551.511,157.666 549.478,163.533C547.445,169.4 550.557,175.814 556.424,177.847C562.291,179.879 568.705,176.767 570.738,170.9Z"/>
        <path d="M498.738,378.683C496.705,384.55 490.291,387.663 484.424,385.63C478.557,383.597 475.445,377.183 477.478,371.317C479.511,365.45 485.924,362.337 491.791,364.37C497.658,366.403 500.77,372.817 498.738,378.683Z"/>
        <path d="M560.108,167.217L488.108,375" style="fill:none;stroke:black;stroke-width:5px;"/>
        <path d="M438.432,152.799C433.297,149.308 426.295,150.643 422.804,155.778C419.313,160.913 420.648,167.916 425.783,171.406C430.918,174.897 437.921,173.562 441.411,168.427C444.902,163.292 443.567,156.29 438.432,152.799Z"/>
        <path d="M589.432,255.449C594.567,258.94 595.902,265.943 592.411,271.078C588.921,276.212 581.918,277.547 576.783,274.057C571.648,270.566 570.313,263.563 573.804,258.428C577.295,253.293 584.297,251.958 589.432,255.449Z"/>
        <path d="M432.108,162.103L583.108,264.753" style="fill:none;stroke:black;stroke-width:5px;"/>
        <path d="M456.619,204.237C451.547,207.818 450.336,214.843 453.917,219.916C457.498,224.988 464.523,226.199 469.596,222.618C474.668,219.037 475.879,212.012 472.298,206.94C468.717,201.867 461.692,200.656 456.619,204.237Z"/>
        <path d="M594.619,106.815C599.692,103.234 606.717,104.445 610.298,109.517C613.879,114.59 612.668,121.615 607.596,125.196C602.523,128.777 595.498,127.566 591.917,122.494C588.336,117.421 589.547,110.396 594.619,106.815Z"/>
        <path d="M463.108,213.428L601.108,116.006" style="fill:none;stroke:black;stroke-width:5px;"/>
        <circle cx="515.108" cy="298.554" r="5.554" style="fill:white;stroke:black;stroke-width:4px;stroke-linecap:square;"/>
        <circle cx="515.108" cy="218.563" r="5.554" style="fill:white;stroke:black;stroke-width:4px;stroke-linecap:square;"/>
        <circle cx="537.299" cy="233.717" r="7.554" style="fill:rgb(45,231,231);stroke:black;stroke-width:2px;stroke-linecap:square;"/>
        <circle cx="515.108" cy="177.557" r="5.554" style="fill:white;stroke:black;stroke-width:4px;stroke-linecap:square;"/>
        <path d="M485.019,310.13L490.059,310.13L490.059,292.706L490.419,290.582L488.979,292.274L485.019,295.118L483.651,293.282L491.571,287.162L492.867,287.162L492.867,310.13L497.799,310.13L497.799,312.794L485.019,312.794L485.019,310.13Z" style="fill-rule:nonzero;"/>
        <path d="M497.829,220.052C497.829,221.324 497.595,222.626 497.127,223.958C496.659,225.29 496.047,226.628 495.291,227.972C494.535,229.316 493.689,230.63 492.753,231.914C491.817,233.198 490.881,234.416 489.945,235.568L488.181,237.116L488.181,237.26L490.485,236.864L498.333,236.864L498.333,239.528L484.005,239.528L484.005,238.484C484.533,237.932 485.169,237.248 485.913,236.432C486.657,235.616 487.431,234.71 488.235,233.714C489.039,232.718 489.831,231.662 490.611,230.546C491.391,229.43 492.099,228.296 492.735,227.144C493.371,225.992 493.881,224.852 494.265,223.724C494.649,222.596 494.841,221.528 494.841,220.52C494.841,219.344 494.505,218.366 493.833,217.586C493.161,216.806 492.141,216.416 490.773,216.416C489.861,216.416 488.973,216.602 488.109,216.974C487.245,217.346 486.501,217.772 485.877,218.252L484.689,216.2C485.529,215.48 486.525,214.916 487.677,214.508C488.829,214.1 490.065,213.896 491.385,213.896C492.417,213.896 493.329,214.046 494.121,214.346C494.913,214.646 495.585,215.072 496.137,215.624C496.689,216.176 497.109,216.83 497.397,217.586C497.685,218.342 497.829,219.164 497.829,220.052Z" style="fill-rule:nonzero;"/>
        <path d="M490.197,174.221C491.013,174.221 491.769,174.101 492.465,173.861C493.161,173.621 493.761,173.267 494.265,172.799C494.769,172.331 495.165,171.773 495.453,171.125C495.741,170.477 495.885,169.769 495.885,169.001C495.885,167.321 495.387,166.073 494.391,165.257C493.395,164.441 492.021,164.033 490.269,164.033L487.605,164.033L487.605,162.989L492.789,154.997L494.445,153.413L492.105,153.773L484.977,153.773L484.977,151.109L497.829,151.109L497.829,152.153L492.105,160.757L490.845,161.801L490.845,161.873L492.069,161.621C493.029,161.645 493.917,161.819 494.733,162.143C495.549,162.467 496.257,162.935 496.857,163.547C497.457,164.159 497.925,164.891 498.261,165.743C498.597,166.595 498.765,167.561 498.765,168.641C498.765,169.937 498.537,171.089 498.081,172.097C497.625,173.105 497.007,173.951 496.227,174.635C495.447,175.319 494.529,175.841 493.473,176.201C492.417,176.561 491.301,176.741 490.125,176.741C489.045,176.741 488.073,176.657 487.209,176.489C486.345,176.321 485.589,176.105 484.941,175.841L485.697,173.285C486.249,173.549 486.903,173.771 487.659,173.951C488.415,174.131 489.261,174.221 490.197,174.221Z" style="fill-rule:nonzero;"/>
    </g>
</svg>
